<?xml version="1.0" encoding="UTF-8"?>
<svg version="1.1" xmlns="http://www.w3.org/2000/svg" width="1024" height="397">
<path d="M0 0 C2.86394289 1.02008719 5.73569527 1.74434683 8.68847656 2.45678711 C12.86781786 3.54671 16.94146447 4.96479799 21.03125 6.34765625 C21.95631348 6.65743408 22.88137695 6.96721191 23.83447266 7.28637695 C29.01143357 9.02809505 34.15473414 10.83825202 39.28125 12.72265625 C43.78435052 14.35727119 48.25989159 15.68353595 52.90625 16.84765625 C59.34862347 18.49337159 65.49281528 20.64450213 71.71875 22.97265625 C78.43045779 25.48022645 85.10130995 27.77349922 92.03125 29.59765625 C103.91307092 32.72641998 115.41150474 36.96842458 126.90625 41.28515625 C131.45863621 42.96197562 136.06149122 44.14846197 140.7890625 45.2265625 C147.14828762 46.87613593 153.30853419 49.16759833 159.48901367 51.3815918 C169.52995849 54.96801532 179.65849244 58.17536863 189.88452148 61.1940918 C202.63974333 65.01661596 202.63974333 65.01661596 207.90625 68.03515625 C209.30560013 70.83385652 209.15890405 72.94014417 208.90625 76.03515625 C205.25486511 81.83441461 194.95247681 83.23910757 188.78125 84.91015625 C181.64453967 86.8914052 174.74557233 89.04187546 167.890625 91.859375 C161.84788251 94.24008899 155.66244535 96.13136624 149.42431641 97.92529297 C138.56217929 101.05899563 127.9545567 104.80923458 117.37573242 108.78344727 C115.66220581 109.41464478 115.66220581 109.41464478 113.9140625 110.05859375 C112.89973145 110.43935059 111.88540039 110.82010742 110.84033203 111.21240234 C107.7220478 112.08680889 105.12731065 112.09396211 101.90625 112.03515625 C101.91624275 113.24665092 101.91624275 113.24665092 101.92643738 114.48262024 C101.98652057 122.08991422 102.03221002 129.69709333 102.06168652 137.30456257 C102.07735009 141.21575851 102.09860063 145.12675859 102.13256836 149.0378418 C102.16513769 152.81147884 102.1830978 156.58492735 102.19088173 160.35869408 C102.19642965 161.79923661 102.20726336 163.23976871 102.22344017 164.68023109 C102.24517959 166.69597965 102.2464751 168.71191746 102.24682617 170.7277832 C102.25681892 172.44986748 102.25681892 172.44986748 102.26701355 174.20674133 C101.90625 177.03515625 101.90625 177.03515625 100.53799438 178.88612366 C98.27584458 180.4790716 96.30213465 180.75084775 93.57421875 181.16796875 C92.52814453 181.33425781 91.48207031 181.50054687 90.40429688 181.671875 C88.76557617 181.91357422 88.76557617 181.91357422 87.09375 182.16015625 C86.01287109 182.32902344 84.93199219 182.49789062 83.81835938 182.671875 C81.79407442 182.98750936 79.76899672 183.29813071 77.74291992 183.60205078 C74.79306322 184.05243772 71.84969029 184.54458287 68.90625 185.03515625 C69.23625 208.13515625 69.56625 231.23515625 69.90625 255.03515625 C72.87625 251.40515625 75.84625 247.77515625 78.90625 244.03515625 C94.06768016 231.66662112 110.07109621 230.07797734 128.90625 231.03515625 C144.84803598 233.0257708 158.79080143 242.24070831 168.65625 254.66015625 C184.26212945 276.71497694 187.91360667 304.6564683 184.13671875 331.046875 C180.6097271 351.39490376 171.18477614 369.6000189 154.59375 382.34765625 C139.84576779 392.5435378 122.99972724 394.95846335 105.5 392.5703125 C89.53316216 389.01979198 78.29883114 380.18476985 68.90625 367.03515625 C68.57625 374.62515625 68.24625 382.21515625 67.90625 390.03515625 C59.65625 390.03515625 51.40625 390.03515625 42.90625 390.03515625 C42.90625 324.69515625 42.90625 259.35515625 42.90625 192.03515625 C29.62442036 196.18572801 18.56032488 200.49864023 6.59375 207.03515625 C5.44543701 207.65813599 5.44543701 207.65813599 4.27392578 208.29370117 C0.78166561 210.23703046 -2.41972912 212.18805487 -5.453125 214.80078125 C-8.09375 217.03515625 -8.09375 217.03515625 -11.03125 217.78515625 C-14.34607371 216.97336269 -14.83268522 216.50373863 -17.03125 214.09765625 C-39.40413567 189.6412646 -83.75431478 185.25832278 -114.47265625 181.23974609 C-115.58898437 181.09359863 -116.7053125 180.94745117 -117.85546875 180.796875 C-119.3398645 180.61064575 -119.3398645 180.61064575 -120.85424805 180.4206543 C-123.09375 180.03515625 -123.09375 180.03515625 -124.09375 179.03515625 C-124.18792773 176.94896603 -124.21117878 174.85955148 -124.20727539 172.77124023 C-124.20742142 172.11760498 -124.20756744 171.46396973 -124.2077179 170.79052734 C-124.20701883 168.62073497 -124.19922678 166.45102746 -124.19140625 164.28125 C-124.18954205 162.78052314 -124.18811816 161.27979568 -124.18711853 159.77906799 C-124.18329352 155.82197399 -124.1734634 151.86491647 -124.16241455 147.90783691 C-124.15220006 143.87280776 -124.14762083 139.83777272 -124.14257812 135.80273438 C-124.13184111 127.88019156 -124.1147649 119.95767844 -124.09375 112.03515625 C-125.31336426 111.90375244 -126.53297852 111.77234863 -127.78955078 111.63696289 C-131.03498148 111.22964398 -133.89919034 110.59574642 -136.9609375 109.40625 C-137.78335938 109.09365234 -138.60578125 108.78105469 -139.453125 108.45898438 C-140.69835937 107.97075195 -140.69835937 107.97075195 -141.96875 107.47265625 C-143.65258896 106.82277581 -145.33743801 106.17550455 -147.0234375 105.53125 C-148.12534424 105.10090454 -148.12534424 105.10090454 -149.24951172 104.66186523 C-151.08472258 103.92790627 -151.08472258 103.92790627 -153.09375 104.03515625 C-154.91101246 109.45821222 -155.37370713 114.14937761 -155.28125 119.84765625 C-155.28060547 120.59080078 -155.27996094 121.33394531 -155.27929688 122.09960938 C-155.24883787 126.02882155 -155.02759008 129.86633698 -154.57421875 133.76953125 C-153.77213931 141.16457468 -154.12043959 148.59366941 -154.30859375 156.01757812 C-154.32277344 157.13583984 -154.33695312 158.25410156 -154.3515625 159.40625 C-154.3736377 160.4161499 -154.39571289 161.4260498 -154.41845703 162.46655273 C-154.03525409 165.49788969 -153.26335143 166.0286801 -151.09375 168.03515625 C-150.68056257 173.15868037 -151.05399264 176.31821737 -153.09375 181.03515625 C-153.76041667 183.53515625 -153.76041667 183.53515625 -153.09375 186.03515625 C-150.55644767 188.27952114 -150.55644767 188.27952114 -148.69921875 189.43359375 C-145.35222117 192.77244778 -144.12275751 196.72981844 -144.01953125 201.375 C-144.14714844 202.56222656 -144.27476562 203.74945313 -144.40625 204.97265625 C-145.08332929 212.33668242 -145.18845973 219.64165894 -145.15625 227.03515625 C-145.15214111 228.11659912 -145.14803223 229.19804199 -145.14379883 230.31225586 C-145.13116829 232.88660799 -145.11470807 235.46086043 -145.09375 238.03515625 C-144.15015625 237.52855469 -144.15015625 237.52855469 -143.1875 237.01171875 C-129.06349872 229.6519229 -112.8037799 228.58278573 -97.34375 232.66015625 C-91.40091766 234.67660115 -86.19103151 237.3863828 -81.09375 241.03515625 C-80.45953125 241.48632812 -79.8253125 241.9375 -79.171875 242.40234375 C-68.35832731 250.87136119 -62.06451545 264.66016504 -60.09375 278.03515625 C-58.79142679 290.27689797 -58.96483686 302.5471349 -58.99609375 314.83984375 C-58.99796263 317.0170183 -58.99938431 319.19419328 -59.00038147 321.37136841 C-59.00416963 327.05610346 -59.0139676 332.7408123 -59.02508545 338.42553711 C-59.03537985 344.2446253 -59.03989617 350.0637178 -59.04492188 355.8828125 C-59.05559378 367.26694036 -59.07315989 378.65104201 -59.09375 390.03515625 C-67.67375 390.03515625 -76.25375 390.03515625 -85.09375 390.03515625 C-85.11562378 385.25168701 -85.11562378 385.25168701 -85.13793945 380.37158203 C-85.18836238 369.81431638 -85.2549712 359.25719702 -85.32946491 348.70007515 C-85.37411952 342.30169061 -85.41338668 335.90336903 -85.44018555 329.50488281 C-85.46626717 323.32559178 -85.50670448 317.14654365 -85.55693626 310.96740341 C-85.57357204 308.61443995 -85.58510673 306.26143451 -85.59136391 303.90842056 C-85.60104058 300.6029156 -85.62914345 297.29802748 -85.66137695 293.99267578 C-85.65994186 293.02809952 -85.65850677 292.06352325 -85.6570282 291.06971741 C-85.80106585 280.56902538 -88.55575748 271.2980169 -95.5859375 263.34765625 C-103.66836907 255.61327197 -113.36711517 254.48113444 -124.0847168 254.55151367 C-130.62004215 254.76903125 -136.21789015 256.07942069 -142.09375 259.03515625 C-142.75375 259.36515625 -143.41375 259.69515625 -144.09375 260.03515625 C-142.67061999 268.62784276 -141.17796368 276.79174226 -137.86328125 284.8984375 C-137.09375 287.03515625 -137.09375 287.03515625 -137.09375 290.03515625 C-136.43375 290.03515625 -135.77375 290.03515625 -135.09375 290.03515625 C-136.35653132 293.8235002 -137.61487952 294.25526903 -141.09375 296.03515625 C-145.09375 297.03515625 -145.09375 297.03515625 -162.09375 296.03515625 C-162.09375 327.05515625 -162.09375 358.07515625 -162.09375 390.03515625 C-170.67375 390.03515625 -179.25375 390.03515625 -188.09375 390.03515625 C-188.09375 338.22515625 -188.09375 286.41515625 -188.09375 233.03515625 C-182.81375 233.03515625 -177.53375 233.03515625 -172.09375 233.03515625 C-172.33351562 230.72257813 -172.57328125 228.41 -172.8203125 226.02734375 C-173.04506808 223.77372607 -173.26541706 221.51971767 -173.48535156 219.265625 C-173.63993194 217.7055921 -173.79905206 216.14600183 -173.96289062 214.58691406 C-174.19831309 212.33891666 -174.41707732 210.08980551 -174.6328125 207.83984375 C-174.70875641 207.14897675 -174.78470032 206.45810974 -174.86294556 205.74630737 C-175.44371976 199.37818964 -173.93287831 194.153994 -170.09375 189.03515625 C-167.40625 187.72265625 -167.40625 187.72265625 -165.09375 187.03515625 C-165.50413144 183.06813569 -165.86572571 179.66855705 -167.21875 175.91015625 C-168.26472203 172.473391 -168.18036555 170.4502337 -167.09375 167.03515625 C-165.0390625 165.86328125 -165.0390625 165.86328125 -163.09375 165.03515625 C-163.06428965 161.41017383 -163.04679869 157.78522293 -163.03125 154.16015625 C-163.02287109 153.14695313 -163.01449219 152.13375 -163.00585938 151.08984375 C-162.98798943 145.51442021 -163.23486506 140.09693298 -163.85571289 134.55859375 C-164.29805903 129.86927102 -164.31879564 125.17967181 -164.34375 120.47265625 C-164.364375 119.49619141 -164.385 118.51972656 -164.40625 117.51367188 C-164.44038173 111.13530398 -163.53273646 105.93673096 -161.09375 100.03515625 C-162.01671875 99.82761719 -162.9396875 99.62007813 -163.890625 99.40625 C-172.37721493 97.42822258 -180.52843314 94.93492577 -188.71777344 91.96362305 C-193.99789136 90.06792656 -199.30907904 88.32137618 -204.67578125 86.6875 C-205.32959274 86.48804276 -205.98340424 86.28858551 -206.6570282 86.08308411 C-209.91660367 85.09143162 -213.17928163 84.11149419 -216.44604492 83.14379883 C-217.6394751 82.78310303 -218.83290527 82.42240723 -220.0625 82.05078125 C-221.12919922 81.73399414 -222.19589844 81.41720703 -223.29492188 81.09082031 C-226.04304745 80.05428028 -227.92954904 79.00788893 -230.09375 77.03515625 C-230.62174676 74.27373322 -230.27973981 71.8715008 -230.09375 69.03515625 C-223.63161726 65.55554631 -217.07368847 63.26027603 -210.09375 61.03515625 C-207.89177798 60.30670413 -205.69205658 59.57168913 -203.49243164 58.83618164 C-201.10446239 58.03873359 -198.71460809 57.24719245 -196.32421875 56.45703125 C-187.38624577 53.49623945 -178.47131835 50.48531491 -169.59375 47.34765625 C-163.31718881 45.13211573 -157.02815553 43.04804335 -150.65234375 41.1328125 C-145.82001484 39.64226977 -141.01903766 38.06297109 -136.21875 36.47265625 C-135.32615479 36.17939453 -134.43355957 35.88613281 -133.51391602 35.58398438 C-129.8239362 34.35595466 -126.25897725 33.10975654 -122.7109375 31.5078125 C-119.56054188 30.22520003 -116.69028075 29.40313715 -113.39453125 28.625 C-107.12646878 27.12600949 -101.26886134 24.95745074 -95.28125 22.59765625 C-87.40511338 19.5628592 -79.68975114 16.9468408 -71.4921875 14.9296875 C-64.24783943 13.02284186 -57.14089153 10.42209081 -50.28125 7.41015625 C-44.38107339 4.86498203 -38.40430928 3.07956775 -32.15625 1.59765625 C-28.16628496 0.64959594 -24.58536273 -0.54232562 -20.84375 -2.21484375 C-13.21982731 -5.36622674 -7.30549761 -2.89359318 0 0 Z M79.7890625 267.578125 C67.71280636 283.33738872 65.16733714 303.92223079 67.12451172 323.18310547 C69.16614835 337.91231173 74.88975342 352.97137211 86.84375 362.47265625 C98.81469599 370.64217757 112.43869326 371.91977059 126.5078125 369.38671875 C138.17480816 365.8594875 146.50513866 357.98825147 152.34375 347.4375 C161.6404157 328.2077897 162.40828264 305.0157122 156.15625 284.72265625 C151.92533472 273.16125407 144.9890938 262.98326585 133.90625 257.09765625 C115.25519821 248.77641776 93.89555136 252.64352242 79.7890625 267.578125 Z " fill="#444444" transform="translate(354.09375,3.96484375)"/>
<path d="M0 0 C0.36170213 5.42553191 0.36170213 5.42553191 -1.0625 7.6875 C-6.76963714 11.55362516 -13.55836986 13.09688376 -20.125 14.875 C-27.26171033 16.85624895 -34.16067767 19.00671921 -41.015625 21.82421875 C-47.05836749 24.20493274 -53.24380465 26.09620999 -59.48193359 27.89013672 C-70.34407071 31.02383938 -80.9516933 34.77407833 -91.53051758 38.74829102 C-92.67286865 39.16908936 -93.81521973 39.5898877 -94.9921875 40.0234375 C-96.51368408 40.59457275 -96.51368408 40.59457275 -98.06591797 41.17724609 C-101.1842022 42.05165264 -103.77893935 42.05880586 -107 42 C-106.99000725 43.21149467 -106.99000725 43.21149467 -106.97981262 44.44746399 C-106.91972943 52.05475797 -106.87403998 59.66193708 -106.84456348 67.26940632 C-106.82889991 71.18060226 -106.80764937 75.09160234 -106.77368164 79.00268555 C-106.74111231 82.77632259 -106.7231522 86.5497711 -106.71536827 90.32353783 C-106.70982035 91.76408036 -106.69898664 93.20461246 -106.68280983 94.64507484 C-106.66107041 96.6608234 -106.6597749 98.67676121 -106.65942383 100.69262695 C-106.64943108 102.41471123 -106.64943108 102.41471123 -106.63923645 104.17158508 C-107 107 -107 107 -108.36825562 108.85096741 C-110.63040542 110.44391535 -112.60411535 110.7156915 -115.33203125 111.1328125 C-116.37810547 111.29910156 -117.42417969 111.46539062 -118.50195312 111.63671875 C-119.59443359 111.79785156 -120.68691406 111.95898438 -121.8125 112.125 C-123.43381836 112.37830078 -123.43381836 112.37830078 -125.08789062 112.63671875 C-127.11217558 112.95235311 -129.13725328 113.26297446 -131.16333008 113.56689453 C-134.11318678 114.01728147 -137.05655971 114.50942662 -140 115 C-139.67 138.1 -139.34 161.2 -139 185 C-136.03 181.37 -133.06 177.74 -130 174 C-114.83856984 161.63146487 -98.83515379 160.04282109 -80 161 C-64.05821402 162.99061455 -50.11544857 172.20555206 -40.25 184.625 C-24.64412055 206.67982069 -20.99264333 234.62131205 -24.76953125 261.01171875 C-28.2965229 281.35974751 -37.72147386 299.56486265 -54.3125 312.3125 C-69.06048221 322.50838155 -85.90652276 324.9233071 -103.40625 322.53515625 C-119.37308784 318.98463573 -130.60741886 310.1496136 -140 297 C-140.33 304.59 -140.66 312.18 -141 320 C-149.25 320 -157.5 320 -166 320 C-166 254.66 -166 189.32 -166 122 C-179.28182964 126.15057176 -190.34592512 130.46348398 -202.3125 137 C-203.46081299 137.62297974 -203.46081299 137.62297974 -204.63232422 138.25854492 C-208.12458439 140.20187421 -211.32597912 142.15289862 -214.359375 144.765625 C-217 147 -217 147 -219.9375 147.75 C-223.25232371 146.93820644 -223.73893522 146.46858238 -225.9375 144.0625 C-248.31038567 119.60610835 -292.66056478 115.22316653 -323.37890625 111.20458984 C-324.49523437 111.05844238 -325.6115625 110.91229492 -326.76171875 110.76171875 C-327.75131592 110.63756592 -328.74091309 110.51341309 -329.76049805 110.38549805 C-332 110 -332 110 -333 109 C-333.09417773 106.91380978 -333.11742878 104.82439523 -333.11352539 102.73608398 C-333.11367142 102.08244873 -333.11381744 101.42881348 -333.1139679 100.75537109 C-333.11326883 98.58557872 -333.10547678 96.41587121 -333.09765625 94.24609375 C-333.09579205 92.74536689 -333.09436816 91.24463943 -333.09336853 89.74391174 C-333.08954352 85.78681774 -333.0797134 81.82976022 -333.06866455 77.87268066 C-333.05845006 73.83765151 -333.05387083 69.80261647 -333.04882812 65.76757812 C-333.03809111 57.84503531 -333.0210149 49.92252219 -333 42 C-334.81371094 41.80966187 -334.81371094 41.80966187 -336.6640625 41.61547852 C-340.11503723 41.18206653 -343.12517419 40.43196266 -346.375 39.15234375 C-347.29667969 38.79462891 -348.21835937 38.43691406 -349.16796875 38.06835938 C-350.10253906 37.69517578 -351.03710938 37.32199219 -352 36.9375 C-352.96550781 36.56044922 -353.93101562 36.18339844 -354.92578125 35.79492188 C-357.28718868 34.87140115 -359.6449741 33.93964767 -362 33 C-361 30 -361 30 -358.625 28.75 C-354.78559607 27.65302745 -352.0765984 29.35682571 -348.51171875 30.8125 C-342.99646386 33.02779905 -337.42487489 35.04552171 -331.8125 37 C-330.80509766 37.35175293 -329.79769531 37.70350586 -328.75976562 38.06591797 C-322.04988598 40.37659789 -315.35917864 42.28334327 -308.4765625 44.0078125 C-303.99834975 45.28586423 -299.77855569 47.00285925 -295.48242188 48.78515625 C-287.59576966 52.03891643 -279.51239921 54.3612433 -271.26171875 56.49536133 C-265.52585412 57.9803353 -260.08484146 59.63647955 -254.62890625 61.9375 C-249.53956694 63.9944098 -244.31144129 65.66096592 -239.08544922 67.33251953 C-237.64813419 67.79255457 -236.21234051 68.25736094 -234.77783203 68.72607422 C-232.52333755 69.45853077 -230.26298349 70.16925852 -228 70.875 C-227.30640381 71.10243896 -226.61280762 71.32987793 -225.89819336 71.56420898 C-219.15994274 73.61406174 -214.31366311 72.70169556 -208.04296875 69.80859375 C-205.60466038 68.84352715 -203.18052582 68.27670036 -200.625 67.6875 C-191.50933143 65.51437951 -182.75026079 62.17597645 -173.99609375 58.86328125 C-169.08229509 57.01053749 -164.22384746 55.51919363 -159.125 54.25 C-152.83696014 52.63343915 -146.91101574 50.50746205 -140.875 48.125 C-132.79805513 44.94006855 -124.69773804 42.37224798 -116.32714844 40.08081055 C-110.43079257 38.45301982 -104.77913221 36.50738275 -99.1015625 34.21875 C-91.16240437 31.09908081 -82.98644177 28.60123872 -74.828125 26.125 C-68.23983174 24.10492415 -61.74643024 21.85804623 -55.25 19.5625 C-47.94118557 16.99987128 -40.64939826 14.51521965 -33.1875 12.4375 C-26.53159914 10.57378132 -20.08492596 8.26853475 -13.625 5.8125 C-12.25831177 5.29417603 -12.25831177 5.29417603 -10.86401367 4.76538086 C-8.08573838 3.69089666 -2.58036365 0 0 0 Z M-129.1171875 197.54296875 C-141.19344364 213.30223247 -143.73891286 233.88707454 -141.78173828 253.14794922 C-139.74010165 267.87715548 -134.01649658 282.93621586 -122.0625 292.4375 C-110.09155401 300.60702132 -96.46755674 301.88461434 -82.3984375 299.3515625 C-70.73144184 295.82433125 -62.40111134 287.95309522 -56.5625 277.40234375 C-47.2658343 258.17263345 -46.49796736 234.98055595 -52.75 214.6875 C-56.98091528 203.12609782 -63.9171562 192.9481096 -75 187.0625 C-93.65105179 178.74126151 -115.01069864 182.60836617 -129.1171875 197.54296875 Z " fill="#393939" transform="translate(563,74)"/>
<path d="M0 0 C0 0.66 0 1.32 0 2 C1.98 2.495 1.98 2.495 4 3 C4 3.66 4 4.32 4 5 C-20.45907826 15.24004473 -20.45907826 15.24004473 -32.69921875 17.94140625 C-39.57835896 19.53045233 -46.2574818 21.89459598 -52.95898438 24.09619141 C-69.24319613 29.42467231 -69.24319613 29.42467231 -77.5625 30.8125 C-84.86287083 32.19585052 -91.8207444 34.87561758 -98.8359375 37.27148438 C-101.81290095 38.27365709 -104.80880661 39.20639474 -107.8125 40.125 C-108.82699219 40.4446875 -109.84148437 40.764375 -110.88671875 41.09375 C-113.09656366 41.73701728 -115.33332759 42.29080209 -117.58203125 42.78125 C-123.72877825 44.07859114 -123.72877825 44.07859114 -128.48046875 47.84375 C-131.81935876 56.99826533 -130.58303244 69.17426638 -129.4765625 78.72265625 C-128.68065996 86.12197323 -129.02659527 93.55479178 -129.21484375 100.98242188 C-129.22902344 102.10068359 -129.24320313 103.21894531 -129.2578125 104.37109375 C-129.2798877 105.38099365 -129.30196289 106.39089355 -129.32470703 107.43139648 C-128.94150409 110.46273344 -128.16960143 110.99352385 -126 113 C-125.58681257 118.12352412 -125.96024264 121.28306112 -128 126 C-128.66666667 128.5 -128.66666667 128.5 -128 131 C-125.46269767 133.24436489 -125.46269767 133.24436489 -123.60546875 134.3984375 C-120.25847117 137.73729153 -119.02900751 141.69466219 -118.92578125 146.33984375 C-119.05339844 147.52707031 -119.18101562 148.71429688 -119.3125 149.9375 C-119.98957929 157.30152617 -120.09470973 164.60650269 -120.0625 172 C-120.05839111 173.08144287 -120.05428223 174.16288574 -120.05004883 175.27709961 C-120.03741829 177.85145174 -120.02095807 180.42570418 -120 183 C-119.3709375 182.66226563 -118.741875 182.32453125 -118.09375 181.9765625 C-103.96974872 174.61676665 -87.7100299 173.54762948 -72.25 177.625 C-66.30716766 179.6414449 -61.09728151 182.35122655 -56 186 C-55.36578125 186.45117188 -54.7315625 186.90234375 -54.078125 187.3671875 C-43.26457731 195.83620494 -36.97076545 209.62500879 -35 223 C-33.69767679 235.24174172 -33.87108686 247.51197865 -33.90234375 259.8046875 C-33.90421263 261.98186205 -33.90563431 264.15903703 -33.90663147 266.33621216 C-33.91041963 272.02094721 -33.9202176 277.70565605 -33.93133545 283.39038086 C-33.94162985 289.20946905 -33.94614617 295.02856155 -33.95117188 300.84765625 C-33.96184378 312.23178411 -33.97940989 323.61588576 -34 335 C-42.58 335 -51.16 335 -60 335 C-60.01458252 331.81102051 -60.02916504 328.62204102 -60.04418945 325.33642578 C-60.09461238 314.77916013 -60.1612212 304.22204077 -60.23571491 293.6649189 C-60.28036952 287.26653436 -60.31963668 280.86821278 -60.34643555 274.46972656 C-60.37251717 268.29043553 -60.41295448 262.1113874 -60.46318626 255.93224716 C-60.47982204 253.5792837 -60.49135673 251.22627826 -60.49761391 248.87326431 C-60.50729058 245.56775935 -60.53539345 242.26287123 -60.56762695 238.95751953 C-60.56619186 237.99294327 -60.56475677 237.028367 -60.5632782 236.03456116 C-60.70731585 225.53386913 -63.46200748 216.26286065 -70.4921875 208.3125 C-78.57461907 200.57811572 -88.27336517 199.44597819 -98.9909668 199.51635742 C-105.52629215 199.733875 -111.12414015 201.04426444 -117 204 C-117.66 204.33 -118.32 204.66 -119 205 C-117.57686999 213.59268651 -116.08421368 221.75658601 -112.76953125 229.86328125 C-112 232 -112 232 -112 235 C-111.34 235 -110.68 235 -110 235 C-111.26278132 238.78834395 -112.52112952 239.22011278 -116 241 C-120 242 -120 242 -137 241 C-137 272.02 -137 303.04 -137 335 C-145.58 335 -154.16 335 -163 335 C-163 283.19 -163 231.38 -163 178 C-157.72 178 -152.44 178 -147 178 C-147.23976562 175.68742188 -147.47953125 173.37484375 -147.7265625 170.9921875 C-147.95131808 168.73856982 -148.17166706 166.48456142 -148.39160156 164.23046875 C-148.54618194 162.67043585 -148.70530206 161.11084558 -148.86914062 159.55175781 C-149.10456309 157.30376041 -149.32332732 155.05464926 -149.5390625 152.8046875 C-149.61500641 152.1138205 -149.69095032 151.42295349 -149.76919556 150.71115112 C-150.34996976 144.34303339 -148.83912831 139.11883775 -145 134 C-142.3125 132.6875 -142.3125 132.6875 -140 132 C-140.41038144 128.03297944 -140.77197571 124.6334008 -142.125 120.875 C-143.17097203 117.43823475 -143.08661555 115.41507745 -142 112 C-139.9453125 110.828125 -139.9453125 110.828125 -138 110 C-137.97053965 106.37501758 -137.95304869 102.75006668 -137.9375 99.125 C-137.92912109 98.11179687 -137.92074219 97.09859375 -137.91210938 96.0546875 C-137.89423943 90.47926396 -138.14111506 85.06177673 -138.76196289 79.5234375 C-139.20430903 74.83411477 -139.22504564 70.14451556 -139.25 65.4375 C-139.270625 64.46103516 -139.29125 63.48457031 -139.3125 62.47851562 C-139.3549927 54.5376914 -138.17813708 48.44194424 -133.90625 41.69140625 C-130.09839988 38.16505043 -126.34485059 36.65727095 -121.5 34.9375 C-120.57219727 34.59589844 -119.64439453 34.25429687 -118.68847656 33.90234375 C-111.61359363 31.37918388 -104.49023014 29.53714877 -97.16015625 27.93334961 C-90.12306113 26.36442561 -83.34126896 24.26734117 -76.5 22 C-67.82847355 19.13145958 -59.18772626 16.7371111 -50.28076172 14.72705078 C-41.48488215 12.71719828 -32.90457305 10.15392026 -24.62890625 6.51953125 C-20.58117177 4.82462413 -16.52120623 3.53557442 -12.3125 2.3125 C-11.56677734 2.08755859 -10.82105469 1.86261719 -10.05273438 1.63085938 C-6.53376119 0.59808312 -3.69585688 0 0 0 Z " fill="#FBD602" transform="translate(329,59)"/>
<path d="M0 0 C8.58 0 17.16 0 26 0 C26.33 27.39 26.66 54.78 27 83 C31.455 77.555 31.455 77.555 36 72 C51.16143016 59.63146487 67.16484621 58.04282109 86 59 C101.94178598 60.99061455 115.88455143 70.20555206 125.75 82.625 C141.35587945 104.67982069 145.00735667 132.62131205 141.23046875 159.01171875 C137.7034771 179.35974751 128.27852614 197.56486265 111.6875 210.3125 C96.93951779 220.50838155 80.09347724 222.9233071 62.59375 220.53515625 C46.62691216 216.98463573 35.39258114 208.1496136 26 195 C25.67 202.59 25.34 210.18 25 218 C16.75 218 8.5 218 0 218 C0 146.06 0 74.12 0 0 Z M36.8828125 95.54296875 C24.80655636 111.30223247 22.26108714 131.88707454 24.21826172 151.14794922 C26.25989835 165.87715548 31.98350342 180.93621586 43.9375 190.4375 C55.90844599 198.60702132 69.53244326 199.88461434 83.6015625 197.3515625 C95.26855816 193.82433125 103.59888866 185.95309522 109.4375 175.40234375 C118.7341657 156.17263345 119.50203264 132.98055595 113.25 112.6875 C109.01908472 101.12609782 102.0828438 90.9481096 91 85.0625 C72.34894821 76.74126151 50.98930136 80.60836617 36.8828125 95.54296875 Z " fill="#000000" transform="translate(730,176)"/>
<path d="M0 0 C0.33 23.1 0.66 46.2 1 70 C5.455 64.555 5.455 64.555 10 59 C25.16143016 46.63146487 41.16484621 45.04282109 60 46 C75.94178598 47.99061455 89.88455143 57.20555206 99.75 69.625 C115.35587945 91.67982069 119.00735667 119.62131205 115.23046875 146.01171875 C111.7034771 166.35974751 102.27852614 184.56486265 85.6875 197.3125 C70.93951779 207.50838155 54.09347724 209.9233071 36.59375 207.53515625 C20.62691216 203.98463573 9.39258114 195.1496136 0 182 C-0.33 189.59 -0.66 197.18 -1 205 C-9.25 205 -17.5 205 -26 205 C-26 139.33 -26 73.66 -26 6 C-4 0 -4 0 0 0 Z M10.8828125 82.54296875 C-1.19344364 98.30223247 -3.73891286 118.88707454 -1.78173828 138.14794922 C0.25989835 152.87715548 5.98350342 167.93621586 17.9375 177.4375 C29.90844599 185.60702132 43.53244326 186.88461434 57.6015625 184.3515625 C69.26855816 180.82433125 77.59888866 172.95309522 83.4375 162.40234375 C92.7341657 143.17263345 93.50203264 119.98055595 87.25 99.6875 C83.01908472 88.12609782 76.0828438 77.9481096 65 72.0625 C46.34894821 63.74126151 24.98930136 67.60836617 10.8828125 82.54296875 Z " fill="#000000" transform="translate(423,189)"/>
<path d="M0 0 C10.88146456 8.54110522 16.17078225 21.31087404 17.94921875 34.6328125 C18.19542195 38.51097613 18.203735 42.36971688 18.17626953 46.25463867 C18.17656158 47.35839844 18.17685364 48.4621582 18.17715454 49.59936523 C18.17577329 53.2082536 18.16026917 56.81692943 18.14453125 60.42578125 C18.14079684 62.94354642 18.13795189 65.46131305 18.13595581 67.9790802 C18.12912807 73.90383894 18.11340297 79.82853072 18.09325683 85.75325519 C18.06859346 93.16947444 18.05794211 100.58570328 18.046875 108.00195312 C18.02548447 121.21228497 17.99032992 134.42252729 17.94921875 147.6328125 C9.69921875 147.6328125 1.44921875 147.6328125 -7.05078125 147.6328125 C-7.54578125 137.2378125 -7.54578125 137.2378125 -8.05078125 126.6328125 C-10.03078125 129.2728125 -12.01078125 131.9128125 -14.05078125 134.6328125 C-22.84255741 144.83127284 -34.52966567 149.25884774 -47.7265625 150.46875 C-48.49355469 150.52289063 -49.26054688 150.57703125 -50.05078125 150.6328125 C-50.78683594 150.68695313 -51.52289062 150.74109375 -52.28125 150.796875 C-67.79832791 151.36869362 -84.00163006 146.94771111 -95.86328125 136.796875 C-105.04775198 127.71080932 -109.12562333 115.84125713 -109.36328125 103.1328125 C-109.37420439 92.55800361 -107.20357857 82.83118225 -100.16015625 74.62890625 C-83.01835249 58.40768084 -56.7450575 57.08775215 -34.53442383 54.20288086 C-31.78477424 53.84288428 -29.03695562 53.47078808 -26.2890625 53.09765625 C-25.04990837 52.94284035 -25.04990837 52.94284035 -23.78572083 52.78489685 C-18.73821531 52.09455221 -14.59594279 50.97371249 -10.05078125 48.6328125 C-6.64996239 43.23745934 -8.0683951 36.63628343 -9.05078125 30.6328125 C-11.13676636 23.37358431 -16.45261902 18.21573079 -22.94921875 14.56640625 C-33.1506216 9.95572854 -48.35462875 9.69659892 -58.8203125 13.60546875 C-59.92439453 14.11400391 -59.92439453 14.11400391 -61.05078125 14.6328125 C-61.90027344 15.02339844 -62.74976563 15.41398437 -63.625 15.81640625 C-71.52825264 19.9865829 -76.21309961 25.9986588 -79.48828125 34.2578125 C-79.67390625 35.0415625 -79.85953125 35.8253125 -80.05078125 36.6328125 C-88.43089154 36.78673289 -96.69973918 36.31552543 -105.05078125 35.6328125 C-104.24905048 23.00555291 -98.62020748 12.77988049 -89.55078125 4.0078125 C-65.34926611 -16.68990119 -26.08391444 -17.38927629 0 0 Z M-10.77734375 69.9765625 C-16.39317167 72.4115169 -22.42531614 73.13253517 -28.42578125 74.1328125 C-29.67351318 74.34929443 -30.92124512 74.56577637 -32.20678711 74.78881836 C-37.56025617 75.71556033 -42.91744866 76.61561607 -48.28125 77.48046875 C-61.41770961 79.6191946 -71.98118784 82.10782445 -81.05078125 92.6328125 C-84.09552503 98.51362604 -84.15697322 105.65184617 -82.3984375 111.98046875 C-79.57417225 118.27142868 -74.65920433 122.62058047 -68.42578125 125.4453125 C-55.70722111 129.92036144 -39.52910421 129.14028164 -27.4140625 123.37890625 C-18.76319078 118.6332113 -12.57152181 111.87780561 -9.05078125 102.6328125 C-6.95518704 95.10955227 -6.80316209 87.77054873 -6.92578125 80.0078125 C-6.93480469 78.90824219 -6.94382812 77.80867188 -6.953125 76.67578125 C-6.97644001 73.99455492 -7.00916085 71.31380643 -7.05078125 68.6328125 C-8.40790167 68.55913485 -8.40790167 68.55913485 -10.77734375 69.9765625 Z " fill="#000000" transform="translate(1006.05078125,246.3671875)"/>
<path d="M0 0 C10.88146456 8.54110522 16.17078225 21.31087404 17.94921875 34.6328125 C18.19542195 38.51097613 18.203735 42.36971688 18.17626953 46.25463867 C18.17656158 47.35839844 18.17685364 48.4621582 18.17715454 49.59936523 C18.17577329 53.2082536 18.16026917 56.81692943 18.14453125 60.42578125 C18.14079684 62.94354642 18.13795189 65.46131305 18.13595581 67.9790802 C18.12912807 73.90383894 18.11340297 79.82853072 18.09325683 85.75325519 C18.06859346 93.16947444 18.05794211 100.58570328 18.046875 108.00195312 C18.02548447 121.21228497 17.99032992 134.42252729 17.94921875 147.6328125 C9.69921875 147.6328125 1.44921875 147.6328125 -7.05078125 147.6328125 C-7.54578125 137.2378125 -7.54578125 137.2378125 -8.05078125 126.6328125 C-10.03078125 129.2728125 -12.01078125 131.9128125 -14.05078125 134.6328125 C-22.84255741 144.83127284 -34.52966567 149.25884774 -47.7265625 150.46875 C-48.49355469 150.52289063 -49.26054688 150.57703125 -50.05078125 150.6328125 C-50.78683594 150.68695313 -51.52289062 150.74109375 -52.28125 150.796875 C-67.79832791 151.36869362 -84.00163006 146.94771111 -95.86328125 136.796875 C-105.04775198 127.71080932 -109.12562333 115.84125713 -109.36328125 103.1328125 C-109.37420439 92.55800361 -107.20357857 82.83118225 -100.16015625 74.62890625 C-83.01835249 58.40768084 -56.7450575 57.08775215 -34.53442383 54.20288086 C-31.78477424 53.84288428 -29.03695562 53.47078808 -26.2890625 53.09765625 C-25.04990837 52.94284035 -25.04990837 52.94284035 -23.78572083 52.78489685 C-18.73821531 52.09455221 -14.59594279 50.97371249 -10.05078125 48.6328125 C-6.64996239 43.23745934 -8.0683951 36.63628343 -9.05078125 30.6328125 C-11.13676636 23.37358431 -16.45261902 18.21573079 -22.94921875 14.56640625 C-33.1506216 9.95572854 -48.35462875 9.69659892 -58.8203125 13.60546875 C-59.92439453 14.11400391 -59.92439453 14.11400391 -61.05078125 14.6328125 C-61.90027344 15.02339844 -62.74976563 15.41398437 -63.625 15.81640625 C-71.52825264 19.9865829 -76.21309961 25.9986588 -79.48828125 34.2578125 C-79.67390625 35.0415625 -79.85953125 35.8253125 -80.05078125 36.6328125 C-88.43089154 36.78673289 -96.69973918 36.31552543 -105.05078125 35.6328125 C-104.24905048 23.00555291 -98.62020748 12.77988049 -89.55078125 4.0078125 C-65.34926611 -16.68990119 -26.08391444 -17.38927629 0 0 Z M-10.77734375 69.9765625 C-16.39317167 72.4115169 -22.42531614 73.13253517 -28.42578125 74.1328125 C-29.67351318 74.34929443 -30.92124512 74.56577637 -32.20678711 74.78881836 C-37.56025617 75.71556033 -42.91744866 76.61561607 -48.28125 77.48046875 C-61.41770961 79.6191946 -71.98118784 82.10782445 -81.05078125 92.6328125 C-84.09552503 98.51362604 -84.15697322 105.65184617 -82.3984375 111.98046875 C-79.57417225 118.27142868 -74.65920433 122.62058047 -68.42578125 125.4453125 C-55.70722111 129.92036144 -39.52910421 129.14028164 -27.4140625 123.37890625 C-18.76319078 118.6332113 -12.57152181 111.87780561 -9.05078125 102.6328125 C-6.95518704 95.10955227 -6.80316209 87.77054873 -6.92578125 80.0078125 C-6.93480469 78.90824219 -6.94382812 77.80867188 -6.953125 76.67578125 C-6.97644001 73.99455492 -7.00916085 71.31380643 -7.05078125 68.6328125 C-8.40790167 68.55913485 -8.40790167 68.55913485 -10.77734375 69.9765625 Z " fill="#000000" transform="translate(674.05078125,246.3671875)"/>
<path d="M0 0 C8.25 0 16.5 0 25 0 C25.02187378 4.78346924 25.02187378 4.78346924 25.04418945 9.66357422 C25.09461238 20.22083987 25.1612212 30.77795923 25.23571491 41.3350811 C25.28036952 47.73346564 25.31963668 54.13178722 25.34643555 60.53027344 C25.37251717 66.70956447 25.41295448 72.8886126 25.46318626 79.06775284 C25.47982204 81.4207163 25.49135673 83.77372174 25.49761391 86.12673569 C25.50729058 89.43224065 25.53539345 92.73712877 25.56762695 96.04248047 C25.56547432 97.48934486 25.56547432 97.48934486 25.5632782 98.96543884 C25.70668661 109.42025734 28.41668895 118.83122666 35.52734375 126.6875 C43.09831519 133.81312017 53.18865704 136.38255628 63.3828125 136.2109375 C74.3928144 135.32356421 84.53086079 131.97264486 92.3125 123.875 C99.48628505 114.74472811 101.13714687 104.17291219 101.20532227 92.97729492 C101.21522186 91.97194702 101.22512146 90.96659912 101.23532104 89.93078613 C101.26686065 86.61403747 101.29166371 83.2972745 101.31640625 79.98046875 C101.33698228 77.67832572 101.35797893 75.37618642 101.37937927 73.0740509 C101.43453285 67.01932798 101.48397176 60.96457135 101.53222656 54.90979004 C101.5824906 48.7295431 101.63815107 42.54934503 101.69335938 36.36914062 C101.80085886 24.24613398 101.9018233 12.12308574 102 0 C110.58 0 119.16 0 128 0 C128 51.81 128 103.62 128 157 C119.75 157 111.5 157 103 157 C102.67 149.74 102.34 142.48 102 135 C100.02 137.64 98.04 140.28 96 143 C88.5283932 152.09586915 76.33476649 158.37625094 64.62890625 159.82421875 C63.32759766 159.91123047 63.32759766 159.91123047 62 160 C61.06027344 160.06832031 60.12054688 160.13664063 59.15234375 160.20703125 C43.24614693 160.77286434 27.76294939 155.81756137 15.90234375 145.10546875 C4.16601673 132.91687479 -0.51896358 116.96396346 -0.34057617 100.35644531 C-0.34101425 99.26229309 -0.34145233 98.16814087 -0.34190369 97.04083252 C-0.33983476 93.46974037 -0.31659368 89.89913384 -0.29296875 86.328125 C-0.28736605 83.83421078 -0.28309914 81.34029323 -0.28010559 78.84637451 C-0.26870994 72.31651522 -0.23928845 65.78685952 -0.20599365 59.25708008 C-0.17353183 52.58028113 -0.16157587 45.9034184 -0.14648438 39.2265625 C-0.11441345 26.15093832 -0.06168891 13.07551803 0 0 Z " fill="#000000" transform="translate(0,237)"/>
<path d="M0 0 C0.36170213 5.42553191 0.36170213 5.42553191 -1.0625 7.6875 C-6.76963714 11.55362516 -13.55836986 13.09688376 -20.125 14.875 C-27.26171033 16.85624895 -34.16067767 19.00671921 -41.015625 21.82421875 C-47.05836749 24.20493274 -53.24380465 26.09620999 -59.48193359 27.89013672 C-70.34407071 31.02383938 -80.9516933 34.77407833 -91.53051758 38.74829102 C-92.67286865 39.16908936 -93.81521973 39.5898877 -94.9921875 40.0234375 C-96.51368408 40.59457275 -96.51368408 40.59457275 -98.06591797 41.17724609 C-101 42 -101 42 -107 42 C-107 51.57 -107 61.14 -107 71 C-112.52578148 72.84192716 -117.58915485 74.47970903 -123.1953125 75.75390625 C-123.8318576 75.90029037 -124.46840271 76.0466745 -125.12423706 76.19749451 C-127.12356715 76.65665913 -129.12415901 77.10996926 -131.125 77.5625 C-133.13275726 78.01951302 -135.14019689 78.47784349 -137.14718628 78.93821716 C-138.96225944 79.35414563 -140.77822242 79.76618553 -142.59423828 80.17797852 C-144.94163319 80.74455046 -147.27481106 81.37232522 -149.59277344 82.04931641 C-152.58080528 82.88303638 -155.37736954 83.42701062 -158.4453125 83.83203125 C-164.77483211 84.75708701 -171.03128673 85.95146043 -177.3046875 87.19921875 C-178.31992493 87.39959747 -179.33516235 87.5999762 -180.38116455 87.806427 C-184.6239829 88.64423185 -188.86634838 89.48374201 -193.10546875 90.34008789 C-196.23241332 90.97019007 -199.36192515 91.5858423 -202.4921875 92.19921875 C-203.44334442 92.39496994 -204.39450134 92.59072113 -205.3744812 92.79240417 C-212.90304521 94.24876027 -218.66638406 93.84773197 -225.75 90.6875 C-232.02031562 87.97114604 -238.35174873 85.47512442 -244.86865234 83.40698242 C-253.00663842 80.79884442 -260.82447405 77.41941661 -268.69921875 74.11523438 C-275.4388752 71.32680671 -282.16453976 68.96024622 -289.15625 66.88696289 C-292.57744914 65.81989417 -295.65483193 64.50576367 -298.875 62.9375 C-299.95007813 62.42445313 -301.02515625 61.91140625 -302.1328125 61.3828125 C-303.07898438 60.92648438 -304.02515625 60.47015625 -305 60 C-308.66252416 58.31496037 -312.33700215 56.88177206 -316.1875 55.6875 C-322.09727587 53.78573822 -327.51222752 50.86924145 -333 48 C-333 46.02 -333 44.04 -333 42 C-334.093125 41.91878906 -335.18625 41.83757812 -336.3125 41.75390625 C-341.87008553 41.05920806 -346.82731555 39.00300641 -352 36.9375 C-352.96550781 36.56044922 -353.93101562 36.18339844 -354.92578125 35.79492188 C-357.28718868 34.87140115 -359.6449741 33.93964767 -362 33 C-361 30 -361 30 -358.625 28.75 C-354.78559607 27.65302745 -352.0765984 29.35682571 -348.51171875 30.8125 C-342.99646386 33.02779905 -337.42487489 35.04552171 -331.8125 37 C-330.80509766 37.35175293 -329.79769531 37.70350586 -328.75976562 38.06591797 C-322.04988598 40.37659789 -315.35917864 42.28334327 -308.4765625 44.0078125 C-303.99834975 45.28586423 -299.77855569 47.00285925 -295.48242188 48.78515625 C-287.59576966 52.03891643 -279.51239921 54.3612433 -271.26171875 56.49536133 C-265.52585412 57.9803353 -260.08484146 59.63647955 -254.62890625 61.9375 C-249.53956694 63.9944098 -244.31144129 65.66096592 -239.08544922 67.33251953 C-237.64813419 67.79255457 -236.21234051 68.25736094 -234.77783203 68.72607422 C-232.52333755 69.45853077 -230.26298349 70.16925852 -228 70.875 C-227.30640381 71.10243896 -226.61280762 71.32987793 -225.89819336 71.56420898 C-219.15994274 73.61406174 -214.31366311 72.70169556 -208.04296875 69.80859375 C-205.60466038 68.84352715 -203.18052582 68.27670036 -200.625 67.6875 C-191.50933143 65.51437951 -182.75026079 62.17597645 -173.99609375 58.86328125 C-169.08229509 57.01053749 -164.22384746 55.51919363 -159.125 54.25 C-152.83696014 52.63343915 -146.91101574 50.50746205 -140.875 48.125 C-132.79805513 44.94006855 -124.69773804 42.37224798 -116.32714844 40.08081055 C-110.43079257 38.45301982 -104.77913221 36.50738275 -99.1015625 34.21875 C-91.16240437 31.09908081 -82.98644177 28.60123872 -74.828125 26.125 C-68.23983174 24.10492415 -61.74643024 21.85804623 -55.25 19.5625 C-47.94118557 16.99987128 -40.64939826 14.51521965 -33.1875 12.4375 C-26.53159914 10.57378132 -20.08492596 8.26853475 -13.625 5.8125 C-12.25831177 5.29417603 -12.25831177 5.29417603 -10.86401367 4.76538086 C-8.08573838 3.69089666 -2.58036365 0 0 0 Z " fill="#1C1C1C" transform="translate(563,74)"/>
<path d="M0 0 C0.63421875 0.45117188 1.2684375 0.90234375 1.921875 1.3671875 C12.73542269 9.83620494 19.02923455 23.62500879 21 37 C22.30232321 49.24174172 22.12891314 61.51197865 22.09765625 73.8046875 C22.09578737 75.98186205 22.09436569 78.15903703 22.09336853 80.33621216 C22.08958037 86.02094721 22.0797824 91.70565605 22.06866455 97.39038086 C22.05837015 103.20946905 22.05385383 109.02856155 22.04882812 114.84765625 C22.03815622 126.23178411 22.02059011 137.61588576 22 149 C13.42 149 4.84 149 -4 149 C-4.01458252 145.81102051 -4.02916504 142.62204102 -4.04418945 139.33642578 C-4.09461238 128.77916013 -4.1612212 118.22204077 -4.23571491 107.6649189 C-4.28036952 101.26653436 -4.31963668 94.86821278 -4.34643555 88.46972656 C-4.37251717 82.29043553 -4.41295448 76.1113874 -4.46318626 69.93224716 C-4.47982204 67.5792837 -4.49135673 65.22627826 -4.49761391 62.87326431 C-4.50729058 59.56775935 -4.53539345 56.26287123 -4.56762695 52.95751953 C-4.56619186 51.99294327 -4.56475677 51.028367 -4.5632782 50.03456116 C-4.70731585 39.53386913 -7.46200748 30.26286065 -14.4921875 22.3125 C-22.57531052 14.57745405 -32.27479782 13.4460352 -42.99316406 13.51635742 C-49.56787135 13.73503276 -55.05171483 15.15168652 -61 18 C-61.99 18.33 -62.98 18.66 -64 19 C-65.13793975 14.85279042 -65.33214254 10.77969271 -65.4375 6.5 C-65.48326172 5.74074219 -65.52902344 4.98148438 -65.57617188 4.19921875 C-65.62074705 1.98596435 -65.56673174 0.14148884 -65 -2 C-48.2407878 -16.92960388 -16.72105025 -11.96938489 0 0 Z " fill="#000000" transform="translate(273,245)"/>
<path d="M0 0 C8.58 0 17.16 0 26 0 C26 51.81 26 103.62 26 157 C17.42 157 8.84 157 0 157 C0 105.19 0 53.38 0 0 Z " fill="#000000" transform="translate(333,237)"/>
<path d="M0 0 C5.28 0 10.56 0 16 0 C16.22244017 7.31751468 15.38517587 14.16281365 14.1875 21.375 C14.02185547 22.43460937 13.85621094 23.49421875 13.68554688 24.5859375 C12.55606243 31.54185677 10.9557629 38.23415497 9 45 C8.70996094 46.11375 8.41992188 47.2275 8.12109375 48.375 C7.89550781 49.24125 7.66992188 50.1075 7.4375 51 C7.20933594 51.886875 6.98117188 52.77375 6.74609375 53.6875 C6 56 6 56 4 59 C5.65984798 59.68346682 7.32836805 60.34588315 9 61 C9.86625 61.37125 10.7325 61.7425 11.625 62.125 C16.19356408 63.46009729 16.19356408 63.46009729 26 63 C26 94.02 26 125.04 26 157 C17.42 157 8.84 157 0 157 C0 105.19 0 53.38 0 0 Z " fill="#000000" transform="translate(166,237)"/>
<path d="M0 0 C0.36170213 5.42553191 0.36170213 5.42553191 -1.0625 7.6875 C-6.76963714 11.55362516 -13.55836986 13.09688376 -20.125 14.875 C-27.26171033 16.85624895 -34.16067767 19.00671921 -41.015625 21.82421875 C-47.05775392 24.20469101 -53.24253043 26.09628249 -59.48022461 27.8894043 C-70.13032212 30.96302712 -80.53031665 34.61130729 -90.9152832 38.48461914 C-97.53097138 40.91356056 -104.0284288 42.75976251 -110.9128418 44.2512207 C-115.67878103 45.4071824 -120.14868737 47.16376553 -124.6875 49 C-130.57429286 51.34941771 -136.42155727 53.49981336 -142.51049805 55.26708984 C-146.72940609 56.5091377 -150.89280509 57.91562852 -155.0625 59.3125 C-155.96645508 59.61373779 -156.87041016 59.91497559 -157.80175781 60.2253418 C-163.64517113 62.18186928 -169.4527498 64.22384717 -175.25 66.3125 C-180.05450495 68.04157112 -184.75969743 69.49209546 -189.77734375 70.44921875 C-193.86857394 71.46303853 -197.72898415 73.14515085 -201.64453125 74.6875 C-204.91458876 75.96659118 -208.19020986 77.20252822 -211.5 78.375 C-212.90765625 78.88160156 -212.90765625 78.88160156 -214.34375 79.3984375 C-218.76498344 80.39971684 -222.62319289 78.87386229 -226.82421875 77.43359375 C-227.7575 77.11696777 -228.69078125 76.8003418 -229.65234375 76.47412109 C-230.65394531 76.13203613 -231.65554688 75.78995117 -232.6875 75.4375 C-241.5816692 72.42861567 -250.51196754 69.58997026 -259.5 66.875 C-267.31653639 64.51016458 -274.98999455 61.98603523 -282.59106445 59.00292969 C-286.73895182 57.39927734 -290.87313265 56.19429363 -295.1875 55.125 C-301.41030744 53.56276158 -307.22842659 51.43055649 -313.1875 49.0625 C-320.917353 46.00066602 -328.54910121 43.72854832 -336.64624023 41.87451172 C-345.44203026 39.79529909 -353.6799708 36.48677552 -362 33 C-361 30 -361 30 -358.625 28.75 C-354.78559607 27.65302745 -352.0765984 29.35682571 -348.51171875 30.8125 C-342.99646386 33.02779905 -337.42487489 35.04552171 -331.8125 37 C-330.80509766 37.35175293 -329.79769531 37.70350586 -328.75976562 38.06591797 C-322.04988598 40.37659789 -315.35917864 42.28334327 -308.4765625 44.0078125 C-303.99834975 45.28586423 -299.77855569 47.00285925 -295.48242188 48.78515625 C-287.59576966 52.03891643 -279.51239921 54.3612433 -271.26171875 56.49536133 C-265.52585412 57.9803353 -260.08484146 59.63647955 -254.62890625 61.9375 C-249.53956694 63.9944098 -244.31144129 65.66096592 -239.08544922 67.33251953 C-237.64813419 67.79255457 -236.21234051 68.25736094 -234.77783203 68.72607422 C-232.52333755 69.45853077 -230.26298349 70.16925852 -228 70.875 C-227.30640381 71.10243896 -226.61280762 71.32987793 -225.89819336 71.56420898 C-219.15994274 73.61406174 -214.31366311 72.70169556 -208.04296875 69.80859375 C-205.60466038 68.84352715 -203.18052582 68.27670036 -200.625 67.6875 C-191.50933143 65.51437951 -182.75026079 62.17597645 -173.99609375 58.86328125 C-169.08229509 57.01053749 -164.22384746 55.51919363 -159.125 54.25 C-152.83696014 52.63343915 -146.91101574 50.50746205 -140.875 48.125 C-132.79805513 44.94006855 -124.69773804 42.37224798 -116.32714844 40.08081055 C-110.43079257 38.45301982 -104.77913221 36.50738275 -99.1015625 34.21875 C-91.16240437 31.09908081 -82.98644177 28.60123872 -74.828125 26.125 C-68.23983174 24.10492415 -61.74643024 21.85804623 -55.25 19.5625 C-47.94118557 16.99987128 -40.64939826 14.51521965 -33.1875 12.4375 C-26.53159914 10.57378132 -20.08492596 8.26853475 -13.625 5.8125 C-12.25831177 5.29417603 -12.25831177 5.29417603 -10.86401367 4.76538086 C-8.08573838 3.69089666 -2.58036365 0 0 0 Z " fill="#2B2B2B" transform="translate(563,74)"/>
<path d="M0 0 C0.66418945 0.25168945 1.32837891 0.50337891 2.01269531 0.76269531 C5.09088368 1.92755952 8.17043086 3.08879131 11.25 4.25 C12.29414063 4.64574219 13.33828125 5.04148437 14.4140625 5.44921875 C23.50918699 8.87392612 32.59735427 12.24804248 42.0625 14.5 C46.91620996 15.66766755 51.50932241 17.18482044 56.17578125 18.94921875 C61.07006121 20.77018875 66.03877573 22.37223357 71 24 C71 27 71 27 70 29 C62.00018518 27.81466039 54.70973952 25.70450565 47.125 22.9375 C39.79108319 20.31878128 32.4487592 17.78272037 25 15.51171875 C24.34023163 15.31035812 23.68046326 15.1089975 23.0007019 14.90153503 C19.78549295 13.92404912 16.56698011 12.96007316 13.34423828 12.00756836 C11.59989502 11.48175171 11.59989502 11.48175171 9.8203125 10.9453125 C8.79180176 10.64125488 7.76329102 10.33719727 6.70361328 10.02392578 C3.89915654 8.96180807 2.05161563 8.19855318 0 6 C-0.25 2.8125 -0.25 2.8125 0 0 Z " fill="#2B2B2B" transform="translate(124,75)"/>
<path d="M0 0 C2 2 2 2 2.125 4.625 C2.08375 5.40875 2.0425 6.1925 2 7 C-2.16292249 9.12771594 -5.25712347 10.11566895 -9.9375 10.25 C-16.65396675 10.67673684 -22.1069376 13.38721107 -28.10546875 16.2109375 C-33.96189929 18.95497895 -39.38587334 21.4960595 -46 21 C-43.35640698 19.23760465 -41.19281868 18.20538252 -38.25390625 17.08984375 C-37.33416016 16.73986328 -36.41441406 16.38988281 -35.46679688 16.02929688 C-34.50837891 15.66900391 -33.54996094 15.30871094 -32.5625 14.9375 C-31.60794922 14.57333984 -30.65339844 14.20917969 -29.66992188 13.83398438 C-21.91620877 10.89853386 -21.91620877 10.89853386 -18 10 C-18 9.34 -18 8.68 -18 8 C-19.32 7.67 -20.64 7.34 -22 7 C-22.625 4.6875 -22.625 4.6875 -23 2 C-17.80632957 -5.79050564 -7.33042223 -3.67363689 0 0 Z " fill="#2B2B2A" transform="translate(351,54)"/>
<path d="M0 0 C-3.07610445 1.78498721 -5.22178425 2.16010702 -8.75 2.1875 C-15.53979603 2.67053247 -21.036164 5.35421014 -27.10546875 8.2109375 C-32.96189929 10.95497895 -38.38587334 13.4960595 -45 13 C-42.36012054 11.24008036 -40.22614625 10.22590884 -37.2890625 9.125 C-35.91621094 8.60679688 -35.91621094 8.60679688 -34.515625 8.078125 C-33.56171875 7.72234375 -32.6078125 7.3665625 -31.625 7 C-29.74207059 6.2919775 -27.85925444 5.58365371 -25.9765625 4.875 C-24.72480225 4.40707031 -24.72480225 4.40707031 -23.44775391 3.9296875 C-21.75253157 3.28582089 -20.06719249 2.61554855 -18.390625 1.92456055 C-15.41179055 0.77251336 -12.52968935 0.2947686 -9.375 -0.1875 C-7.68503906 -0.45626953 -7.68503906 -0.45626953 -5.9609375 -0.73046875 C-3 -1 -3 -1 0 0 Z " fill="#23221D" transform="translate(350,62)"/>
<path d="M0 0 C3.63 0 7.26 0 11 0 C12 5 12 5 11 7 C8.49609375 7.4140625 8.49609375 7.4140625 5.4375 7.625 C4.42558594 7.69976562 3.41367188 7.77453125 2.37109375 7.8515625 C1.58863281 7.90054688 0.80617187 7.94953125 0 8 C0 5.36 0 2.72 0 0 Z " fill="#B8B4B3" transform="translate(189,183)"/>
<path d="M0 0 C0 0.66 0 1.32 0 2 C-2.66666667 2.66666667 -5.33333333 3.33333333 -8 4 C-8.74765625 4.18691406 -9.4953125 4.37382813 -10.265625 4.56640625 C-10.83796875 4.70949219 -11.4103125 4.85257813 -12 5 C-9.28085049 -1.02097391 -6.0998139 -0.0983841 0 0 Z " fill="#434343" transform="translate(342,53)"/>
</svg>
